<svg xmlns="http://www.w3.org/2000/svg" xmlns:xlink="http://www.w3.org/1999/xlink" contentstyletype="text/css" height="681px" preserveAspectRatio="none" style="width:427px;height:681px;background:#FFFFFF;" version="1.1" viewBox="0 0 427 681" width="427px" zoomAndPan="magnify"><defs></defs><g><rect fill="none" height="119.3359" style="stroke:#000000;stroke-width:1.5;" width="234.584" x="10" y="185.6953"></rect><rect fill="none" height="119.3359" style="stroke:#000000;stroke-width:1.5;" width="410.603" x="10" y="435.5625"></rect><line style="stroke:#181818;stroke-width:0.5;stroke-dasharray:5.0,5.0;" x1="38" x2="38" y1="81.2969" y2="601.0313"></line><line style="stroke:#181818;stroke-width:0.5;stroke-dasharray:5.0,5.0;" x1="213.2334" x2="213.2334" y1="81.2969" y2="601.0313"></line><line style="stroke:#181818;stroke-width:0.5;stroke-dasharray:5.0,5.0;" x1="377.397" x2="377.397" y1="81.2969" y2="601.0313"></line><text fill="#000000" font-family="sans-serif" font-size="14" lengthAdjust="spacing" textLength="31.9102" x="20" y="77.9951">User</text><ellipse cx="38.9551" cy="13.5" fill="#E2E2F0" rx="8" ry="8" style="stroke:#181818;stroke-width:0.5;"></ellipse><path d="M38.9551,21.5 L38.9551,48.5 M25.9551,29.5 L51.9551,29.5 M38.9551,48.5 L25.9551,63.5 M38.9551,48.5 L51.9551,63.5 " fill="none" style="stroke:#181818;stroke-width:0.5;"></path><text fill="#000000" font-family="sans-serif" font-size="14" lengthAdjust="spacing" textLength="31.9102" x="20" y="613.0264">User</text><ellipse cx="38.9551" cy="624.8281" fill="#E2E2F0" rx="8" ry="8" style="stroke:#181818;stroke-width:0.5;"></ellipse><path d="M38.9551,632.8281 L38.9551,659.8281 M25.9551,640.8281 L51.9551,640.8281 M38.9551,659.8281 L25.9551,674.8281 M38.9551,659.8281 L51.9551,674.8281 " fill="none" style="stroke:#181818;stroke-width:0.5;"></path><rect fill="#E2E2F0" height="30.2969" rx="2.5" ry="2.5" style="stroke:#181818;stroke-width:0.5;" width="41.3506" x="193.2334" y="50"></rect><text fill="#000000" font-family="sans-serif" font-size="14" lengthAdjust="spacing" textLength="27.3506" x="200.2334" y="69.9951">App</text><rect fill="#E2E2F0" height="30.2969" rx="2.5" ry="2.5" style="stroke:#181818;stroke-width:0.5;" width="41.3506" x="193.2334" y="600.0313"></rect><text fill="#000000" font-family="sans-serif" font-size="14" lengthAdjust="spacing" textLength="27.3506" x="200.2334" y="620.0264">App</text><rect fill="#E2E2F0" height="30.2969" rx="2.5" ry="2.5" style="stroke:#181818;stroke-width:0.5;" width="66.2061" x="344.397" y="50"></rect><text fill="#000000" font-family="sans-serif" font-size="14" lengthAdjust="spacing" textLength="52.2061" x="351.397" y="69.9951">System</text><rect fill="#E2E2F0" height="30.2969" rx="2.5" ry="2.5" style="stroke:#181818;stroke-width:0.5;" width="66.2061" x="344.397" y="600.0313"></rect><text fill="#000000" font-family="sans-serif" font-size="14" lengthAdjust="spacing" textLength="52.2061" x="351.397" y="620.0264">System</text><polygon fill="#181818" points="201.9087,108.4297,211.9087,112.4297,201.9087,116.4297,205.9087,112.4297" style="stroke:#181818;stroke-width:1.0;"></polygon><line style="stroke:#181818;stroke-width:1.0;" x1="38.9551" x2="207.9087" y1="112.4297" y2="112.4297"></line><text fill="#000000" font-family="sans-serif" font-size="13" lengthAdjust="spacing" textLength="79.8599" x="45.9551" y="107.3638">1. Open app</text><polygon fill="#181818" points="365.5,137.5625,375.5,141.5625,365.5,145.5625,369.5,141.5625" style="stroke:#181818;stroke-width:1.0;"></polygon><line style="stroke:#181818;stroke-width:1.0;" x1="213.9087" x2="371.5" y1="141.5625" y2="141.5625"></line><text fill="#000000" font-family="sans-serif" font-size="13" lengthAdjust="spacing" textLength="135.9478" x="220.9087" y="136.4966">2. Check registration</text><polygon fill="#181818" points="224.9087,166.6953,214.9087,170.6953,224.9087,174.6953,220.9087,170.6953" style="stroke:#181818;stroke-width:1.0;"></polygon><line style="stroke:#181818;stroke-width:1.0;" x1="218.9087" x2="376.5" y1="170.6953" y2="170.6953"></line><text fill="#000000" font-family="sans-serif" font-size="13" lengthAdjust="spacing" textLength="139.5913" x="230.9087" y="165.6294">3. Registration status</text><path d="M10,185.6953 L74.4429,185.6953 L74.4429,192.8281 L64.4429,202.8281 L10,202.8281 L10,185.6953 " fill="#EEEEEE" style="stroke:#000000;stroke-width:1.5;"></path><rect fill="none" height="119.3359" style="stroke:#000000;stroke-width:1.5;" width="234.584" x="10" y="185.6953"></rect><text fill="#000000" font-family="sans-serif" font-size="13" font-weight="bold" lengthAdjust="spacing" textLength="19.4429" x="25" y="198.7622">alt</text><text fill="#000000" font-family="sans-serif" font-size="11" font-weight="bold" lengthAdjust="spacing" textLength="120.9517" x="89.4429" y="197.9058">[User is registered]</text><polygon fill="#181818" points="201.9087,219.9609,211.9087,223.9609,201.9087,227.9609,205.9087,223.9609" style="stroke:#181818;stroke-width:1.0;"></polygon><line style="stroke:#181818;stroke-width:1.0;" x1="38.9551" x2="207.9087" y1="223.9609" y2="223.9609"></line><text fill="#000000" font-family="sans-serif" font-size="13" lengthAdjust="spacing" textLength="55.9673" x="45.9551" y="218.895">4. Log in</text><line style="stroke:#000000;stroke-width:1.0;stroke-dasharray:2.0,2.0;" x1="10" x2="244.584" y1="232.9609" y2="232.9609"></line><text fill="#000000" font-family="sans-serif" font-size="11" font-weight="bold" lengthAdjust="spacing" textLength="145.4277" x="15" y="243.1714">[User is not registered]</text><polygon fill="#181818" points="201.9087,263.8984,211.9087,267.8984,201.9087,271.8984,205.9087,267.8984" style="stroke:#181818;stroke-width:1.0;"></polygon><line style="stroke:#181818;stroke-width:1.0;" x1="38.9551" x2="207.9087" y1="267.8984" y2="267.8984"></line><text fill="#000000" font-family="sans-serif" font-size="13" lengthAdjust="spacing" textLength="70.6431" x="45.9551" y="262.8325">5. Register</text><polygon fill="#181818" points="201.9087,293.0313,211.9087,297.0313,201.9087,301.0313,205.9087,297.0313" style="stroke:#181818;stroke-width:1.0;"></polygon><line style="stroke:#181818;stroke-width:1.0;" x1="38.9551" x2="207.9087" y1="297.0313" y2="297.0313"></line><text fill="#000000" font-family="sans-serif" font-size="13" lengthAdjust="spacing" textLength="55.9673" x="45.9551" y="291.9653">6. Log in</text><polygon fill="#181818" points="201.9087,329.1641,211.9087,333.1641,201.9087,337.1641,205.9087,333.1641" style="stroke:#181818;stroke-width:1.0;"></polygon><line style="stroke:#181818;stroke-width:1.0;" x1="38.9551" x2="207.9087" y1="333.1641" y2="333.1641"></line><text fill="#000000" font-family="sans-serif" font-size="13" lengthAdjust="spacing" textLength="150.9536" x="45.9551" y="328.0981">7. Select 'Donate Food'</text><polygon fill="#181818" points="201.9087,358.2969,211.9087,362.2969,201.9087,366.2969,205.9087,362.2969" style="stroke:#181818;stroke-width:1.0;"></polygon><line style="stroke:#181818;stroke-width:1.0;" x1="38.9551" x2="207.9087" y1="362.2969" y2="362.2969"></line><text fill="#000000" font-family="sans-serif" font-size="13" lengthAdjust="spacing" textLength="131.7393" x="45.9551" y="357.231">8. Enter food details</text><polygon fill="#181818" points="201.9087,387.4297,211.9087,391.4297,201.9087,395.4297,205.9087,391.4297" style="stroke:#181818;stroke-width:1.0;"></polygon><line style="stroke:#181818;stroke-width:1.0;" x1="38.9551" x2="207.9087" y1="391.4297" y2="391.4297"></line><text fill="#000000" font-family="sans-serif" font-size="13" lengthAdjust="spacing" textLength="124.0967" x="45.9551" y="386.3638">9. Submit donation</text><polygon fill="#181818" points="365.5,416.5625,375.5,420.5625,365.5,424.5625,369.5,420.5625" style="stroke:#181818;stroke-width:1.0;"></polygon><line style="stroke:#181818;stroke-width:1.0;" x1="213.9087" x2="371.5" y1="420.5625" y2="420.5625"></line><text fill="#000000" font-family="sans-serif" font-size="13" lengthAdjust="spacing" textLength="136.0811" x="220.9087" y="415.4966">10. Process donation</text><path d="M10,435.5625 L74.4429,435.5625 L74.4429,442.6953 L64.4429,452.6953 L10,452.6953 L10,435.5625 " fill="#EEEEEE" style="stroke:#000000;stroke-width:1.5;"></path><rect fill="none" height="119.3359" style="stroke:#000000;stroke-width:1.5;" width="410.603" x="10" y="435.5625"></rect><text fill="#000000" font-family="sans-serif" font-size="13" font-weight="bold" lengthAdjust="spacing" textLength="19.4429" x="25" y="448.6294">alt</text><text fill="#000000" font-family="sans-serif" font-size="11" font-weight="bold" lengthAdjust="spacing" textLength="126.6343" x="89.4429" y="447.7729">[Donation accepted]</text><polygon fill="#181818" points="49.9551,469.8281,39.9551,473.8281,49.9551,477.8281,45.9551,473.8281" style="stroke:#181818;stroke-width:1.0;"></polygon><line style="stroke:#181818;stroke-width:1.0;" x1="43.9551" x2="376.5" y1="473.8281" y2="473.8281"></line><text fill="#000000" font-family="sans-serif" font-size="13" lengthAdjust="spacing" textLength="142.5557" x="55.9551" y="468.7622">11. Notify acceptance</text><polygon fill="#181818" points="224.9087,498.9609,214.9087,502.9609,224.9087,506.9609,220.9087,502.9609" style="stroke:#181818;stroke-width:1.0;"></polygon><line style="stroke:#181818;stroke-width:1.0;" x1="218.9087" x2="376.5" y1="502.9609" y2="502.9609"></line><text fill="#000000" font-family="sans-serif" font-size="13" lengthAdjust="spacing" textLength="131.7075" x="230.9087" y="497.895">12. Schedule pickup</text><line style="stroke:#000000;stroke-width:1.0;stroke-dasharray:2.0,2.0;" x1="10" x2="420.603" y1="511.9609" y2="511.9609"></line><text fill="#000000" font-family="sans-serif" font-size="11" font-weight="bold" lengthAdjust="spacing" textLength="121.4727" x="15" y="522.1714">[Donation rejected]</text><polygon fill="#181818" points="49.9551,542.8984,39.9551,546.8984,49.9551,550.8984,45.9551,546.8984" style="stroke:#181818;stroke-width:1.0;"></polygon><line style="stroke:#181818;stroke-width:1.0;" x1="43.9551" x2="376.5" y1="546.8984" y2="546.8984"></line><text fill="#000000" font-family="sans-serif" font-size="13" lengthAdjust="spacing" textLength="124.5981" x="55.9551" y="541.8325">13. Notify rejection</text><polygon fill="#181818" points="201.9087,579.0313,211.9087,583.0313,201.9087,587.0313,205.9087,583.0313" style="stroke:#181818;stroke-width:1.0;"></polygon><line style="stroke:#181818;stroke-width:1.0;" x1="38.9551" x2="207.9087" y1="583.0313" y2="583.0313"></line><text fill="#000000" font-family="sans-serif" font-size="13" lengthAdjust="spacing" textLength="73.6772" x="45.9551" y="577.9653">14. Log out</text><!--SRC=[VL7BJiCm4BpxAqQzz8H5AEy34g9mGe28-03ZR5lJrBRipQ5_ZvEOX8Q7Bx4pipExiqgp2tYB58HNWOqsNbd6xDRx6LH4-Xu2vJuoxJgilmhHLkFefkNY6eN4ioSBbIhRFmdeYGaxaRZRaDuYqDf43egDioB3Wy92ulKRZiYAcoY4ghdh52Pc0GfK2QHpsCAfnADRmrX1TQIXnZh-l-xiopYbyHCz7rLjDPtwGgAacZHZldHMCU71kMe-OLrAtDkaZbK2KH4hKyS9voefDUyxmwXQeJQWQOp5iSHBS9fY74bTFClyWjAQFESfnu0xgoIGblJasApscQYifWarRpEjhDGRgfgQu8tUDhuFTN0Az976_jDfCJZrnBRLN_8hyivSmvy0]--></g></svg>