<svg xmlns="http://www.w3.org/2000/svg" xmlns:xlink="http://www.w3.org/1999/xlink" contentstyletype="text/css" height="652px" preserveAspectRatio="none" style="width:390px;height:652px;background:#FFFFFF;" version="1.1" viewBox="0 0 390 652" width="390px" zoomAndPan="magnify"><defs></defs><g><rect fill="none" height="119.3359" style="stroke:#000000;stroke-width:1.5;" width="218.0483" x="10" y="156.5625"></rect><rect fill="none" height="119.3359" style="stroke:#000000;stroke-width:1.5;" width="373.8882" x="10" y="406.4297"></rect><line style="stroke:#181818;stroke-width:0.5;stroke-dasharray:5.0,5.0;" x1="38" x2="38" y1="81.2969" y2="571.8984"></line><line style="stroke:#181818;stroke-width:0.5;stroke-dasharray:5.0,5.0;" x1="196.6978" x2="196.6978" y1="81.2969" y2="571.8984"></line><line style="stroke:#181818;stroke-width:0.5;stroke-dasharray:5.0,5.0;" x1="340.6821" x2="340.6821" y1="81.2969" y2="571.8984"></line><text fill="#000000" font-family="sans-serif" font-size="14" lengthAdjust="spacing" textLength="31.9102" x="20" y="77.9951">User</text><ellipse cx="38.9551" cy="13.5" fill="#E2E2F0" rx="8" ry="8" style="stroke:#181818;stroke-width:0.5;"></ellipse><path d="M38.9551,21.5 L38.9551,48.5 M25.9551,29.5 L51.9551,29.5 M38.9551,48.5 L25.9551,63.5 M38.9551,48.5 L51.9551,63.5 " fill="none" style="stroke:#181818;stroke-width:0.5;"></path><text fill="#000000" font-family="sans-serif" font-size="14" lengthAdjust="spacing" textLength="31.9102" x="20" y="583.8936">User</text><ellipse cx="38.9551" cy="595.6953" fill="#E2E2F0" rx="8" ry="8" style="stroke:#181818;stroke-width:0.5;"></ellipse><path d="M38.9551,603.6953 L38.9551,630.6953 M25.9551,611.6953 L51.9551,611.6953 M38.9551,630.6953 L25.9551,645.6953 M38.9551,630.6953 L51.9551,645.6953 " fill="none" style="stroke:#181818;stroke-width:0.5;"></path><rect fill="#E2E2F0" height="30.2969" rx="2.5" ry="2.5" style="stroke:#181818;stroke-width:0.5;" width="41.3506" x="176.6978" y="50"></rect><text fill="#000000" font-family="sans-serif" font-size="14" lengthAdjust="spacing" textLength="27.3506" x="183.6978" y="69.9951">App</text><rect fill="#E2E2F0" height="30.2969" rx="2.5" ry="2.5" style="stroke:#181818;stroke-width:0.5;" width="41.3506" x="176.6978" y="570.8984"></rect><text fill="#000000" font-family="sans-serif" font-size="14" lengthAdjust="spacing" textLength="27.3506" x="183.6978" y="590.8936">App</text><rect fill="#E2E2F0" height="30.2969" rx="2.5" ry="2.5" style="stroke:#181818;stroke-width:0.5;" width="66.2061" x="307.6821" y="50"></rect><text fill="#000000" font-family="sans-serif" font-size="14" lengthAdjust="spacing" textLength="52.2061" x="314.6821" y="69.9951">System</text><rect fill="#E2E2F0" height="30.2969" rx="2.5" ry="2.5" style="stroke:#181818;stroke-width:0.5;" width="66.2061" x="307.6821" y="570.8984"></rect><text fill="#000000" font-family="sans-serif" font-size="14" lengthAdjust="spacing" textLength="52.2061" x="314.6821" y="590.8936">System</text><polygon fill="#181818" points="185.373,108.4297,195.373,112.4297,185.373,116.4297,189.373,112.4297" style="stroke:#181818;stroke-width:1.0;"></polygon><line style="stroke:#181818;stroke-width:1.0;" x1="38.9551" x2="191.373" y1="112.4297" y2="112.4297"></line><text fill="#000000" font-family="sans-serif" font-size="13" lengthAdjust="spacing" textLength="63.3242" x="45.9551" y="107.3638">Open app</text><polygon fill="#181818" points="328.7852,137.5625,338.7852,141.5625,328.7852,145.5625,332.7852,141.5625" style="stroke:#181818;stroke-width:1.0;"></polygon><line style="stroke:#181818;stroke-width:1.0;" x1="197.373" x2="334.7852" y1="141.5625" y2="141.5625"></line><text fill="#000000" font-family="sans-serif" font-size="13" lengthAdjust="spacing" textLength="119.4121" x="204.373" y="136.4966">Check registration</text><path d="M10,156.5625 L74.4429,156.5625 L74.4429,163.6953 L64.4429,173.6953 L10,173.6953 L10,156.5625 " fill="#EEEEEE" style="stroke:#000000;stroke-width:1.5;"></path><rect fill="none" height="119.3359" style="stroke:#000000;stroke-width:1.5;" width="218.0483" x="10" y="156.5625"></rect><text fill="#000000" font-family="sans-serif" font-size="13" font-weight="bold" lengthAdjust="spacing" textLength="19.4429" x="25" y="169.6294">alt</text><text fill="#000000" font-family="sans-serif" font-size="11" font-weight="bold" lengthAdjust="spacing" textLength="120.9517" x="89.4429" y="168.7729">[User is registered]</text><polygon fill="#181818" points="185.373,190.8281,195.373,194.8281,185.373,198.8281,189.373,194.8281" style="stroke:#181818;stroke-width:1.0;"></polygon><line style="stroke:#181818;stroke-width:1.0;" x1="38.9551" x2="191.373" y1="194.8281" y2="194.8281"></line><text fill="#000000" font-family="sans-serif" font-size="13" lengthAdjust="spacing" textLength="39.4316" x="45.9551" y="189.7622">Log in</text><line style="stroke:#000000;stroke-width:1.0;stroke-dasharray:2.0,2.0;" x1="10" x2="228.0483" y1="203.8281" y2="203.8281"></line><text fill="#000000" font-family="sans-serif" font-size="11" font-weight="bold" lengthAdjust="spacing" textLength="145.4277" x="15" y="214.0386">[User is not registered]</text><polygon fill="#181818" points="185.373,234.7656,195.373,238.7656,185.373,242.7656,189.373,238.7656" style="stroke:#181818;stroke-width:1.0;"></polygon><line style="stroke:#181818;stroke-width:1.0;" x1="38.9551" x2="191.373" y1="238.7656" y2="238.7656"></line><text fill="#000000" font-family="sans-serif" font-size="13" lengthAdjust="spacing" textLength="54.1074" x="45.9551" y="233.6997">Register</text><polygon fill="#181818" points="185.373,263.8984,195.373,267.8984,185.373,271.8984,189.373,267.8984" style="stroke:#181818;stroke-width:1.0;"></polygon><line style="stroke:#181818;stroke-width:1.0;" x1="38.9551" x2="191.373" y1="267.8984" y2="267.8984"></line><text fill="#000000" font-family="sans-serif" font-size="13" lengthAdjust="spacing" textLength="39.4316" x="45.9551" y="262.8325">Log in</text><polygon fill="#181818" points="185.373,300.0313,195.373,304.0313,185.373,308.0313,189.373,304.0313" style="stroke:#181818;stroke-width:1.0;"></polygon><line style="stroke:#181818;stroke-width:1.0;" x1="38.9551" x2="191.373" y1="304.0313" y2="304.0313"></line><text fill="#000000" font-family="sans-serif" font-size="13" lengthAdjust="spacing" textLength="134.418" x="45.9551" y="298.9653">Select 'Donate Food'</text><polygon fill="#181818" points="185.373,329.1641,195.373,333.1641,185.373,337.1641,189.373,333.1641" style="stroke:#181818;stroke-width:1.0;"></polygon><line style="stroke:#181818;stroke-width:1.0;" x1="38.9551" x2="191.373" y1="333.1641" y2="333.1641"></line><text fill="#000000" font-family="sans-serif" font-size="13" lengthAdjust="spacing" textLength="115.2036" x="45.9551" y="328.0981">Enter food details</text><polygon fill="#181818" points="185.373,358.2969,195.373,362.2969,185.373,366.2969,189.373,362.2969" style="stroke:#181818;stroke-width:1.0;"></polygon><line style="stroke:#181818;stroke-width:1.0;" x1="38.9551" x2="191.373" y1="362.2969" y2="362.2969"></line><text fill="#000000" font-family="sans-serif" font-size="13" lengthAdjust="spacing" textLength="107.561" x="45.9551" y="357.231">Submit donation</text><polygon fill="#181818" points="328.7852,387.4297,338.7852,391.4297,328.7852,395.4297,332.7852,391.4297" style="stroke:#181818;stroke-width:1.0;"></polygon><line style="stroke:#181818;stroke-width:1.0;" x1="197.373" x2="334.7852" y1="391.4297" y2="391.4297"></line><text fill="#000000" font-family="sans-serif" font-size="13" lengthAdjust="spacing" textLength="111.2744" x="204.373" y="386.3638">Process donation</text><path d="M10,406.4297 L74.4429,406.4297 L74.4429,413.5625 L64.4429,423.5625 L10,423.5625 L10,406.4297 " fill="#EEEEEE" style="stroke:#000000;stroke-width:1.5;"></path><rect fill="none" height="119.3359" style="stroke:#000000;stroke-width:1.5;" width="373.8882" x="10" y="406.4297"></rect><text fill="#000000" font-family="sans-serif" font-size="13" font-weight="bold" lengthAdjust="spacing" textLength="19.4429" x="25" y="419.4966">alt</text><text fill="#000000" font-family="sans-serif" font-size="11" font-weight="bold" lengthAdjust="spacing" textLength="126.6343" x="89.4429" y="418.6401">[Donation accepted]</text><polygon fill="#181818" points="49.9551,440.6953,39.9551,444.6953,49.9551,448.6953,45.9551,444.6953" style="stroke:#181818;stroke-width:1.0;"></polygon><line style="stroke:#181818;stroke-width:1.0;" x1="43.9551" x2="339.7852" y1="444.6953" y2="444.6953"></line><text fill="#000000" font-family="sans-serif" font-size="13" lengthAdjust="spacing" textLength="117.749" x="55.9551" y="439.6294">Notify acceptance</text><polygon fill="#181818" points="208.373,469.8281,198.373,473.8281,208.373,477.8281,204.373,473.8281" style="stroke:#181818;stroke-width:1.0;"></polygon><line style="stroke:#181818;stroke-width:1.0;" x1="202.373" x2="339.7852" y1="473.8281" y2="473.8281"></line><text fill="#000000" font-family="sans-serif" font-size="13" lengthAdjust="spacing" textLength="106.9009" x="214.373" y="468.7622">Schedule pickup</text><line style="stroke:#000000;stroke-width:1.0;stroke-dasharray:2.0,2.0;" x1="10" x2="383.8882" y1="482.8281" y2="482.8281"></line><text fill="#000000" font-family="sans-serif" font-size="11" font-weight="bold" lengthAdjust="spacing" textLength="121.4727" x="15" y="493.0386">[Donation rejected]</text><polygon fill="#181818" points="49.9551,513.7656,39.9551,517.7656,49.9551,521.7656,45.9551,517.7656" style="stroke:#181818;stroke-width:1.0;"></polygon><line style="stroke:#181818;stroke-width:1.0;" x1="43.9551" x2="339.7852" y1="517.7656" y2="517.7656"></line><text fill="#000000" font-family="sans-serif" font-size="13" lengthAdjust="spacing" textLength="99.7915" x="55.9551" y="512.6997">Notify rejection</text><polygon fill="#181818" points="185.373,549.8984,195.373,553.8984,185.373,557.8984,189.373,553.8984" style="stroke:#181818;stroke-width:1.0;"></polygon><line style="stroke:#181818;stroke-width:1.0;" x1="38.9551" x2="191.373" y1="553.8984" y2="553.8984"></line><text fill="#000000" font-family="sans-serif" font-size="13" lengthAdjust="spacing" textLength="48.8706" x="45.9551" y="548.8325">Log out</text><!--SRC=[VL1BRWCX3Drp2YkRh7g1MLIgadPLjLMZ7i0rJa93C0BF8hSF32ZLJDMm0VC-jX-IIeAlpCb4JEh8HGmAgwSOLu0PoZq7TfUiV9wmzZIcgk7XiN87U8yS08kgLFMpaGRO79bEaFZWiYPK9y6WrwapkDm1JcmDb3EpV9K3k63OPxxnW-XTpMV7_dSBTZ7vZZsJmdeh0PNXHSIkvupdK1nXNm2mhEXyNZYCtsUdOAj1NN0HmKSIufn_yIc1RQy0YJXgNwPfghfs6E1DrEqldOE1UC5g_Ud8TlGCqT5fZ2snct_YdxBVVV_6gRFzpQS69wDU0G00]--></g></svg>