<svg xmlns="http://www.w3.org/2000/svg" xmlns:xlink="http://www.w3.org/1999/xlink" contentstyletype="text/css" height="507px" preserveAspectRatio="none" style="width:324px;height:507px;background:#FFFFFF;" version="1.1" viewBox="0 0 324 507" width="324px" zoomAndPan="magnify"><defs></defs><g><!--cluster UserDevice--><g id="cluster_UserDevice"><polygon fill="none" points="43,16,53,6,218,6,218,114.3,208,124.3,43,124.3,43,16" style="stroke:#181818;stroke-width:1.0;"></polygon><line style="stroke:#181818;stroke-width:1.0;" x1="208" x2="218" y1="16" y2="6"></line><line style="stroke:#181818;stroke-width:1.0;" x1="43" x2="208" y1="16" y2="16"></line><line style="stroke:#181818;stroke-width:1.0;" x1="208" x2="208" y1="16" y2="124.3"></line><text fill="#000000" font-family="sans-serif" font-size="14" font-weight="bold" lengthAdjust="spacing" textLength="93.8096" x="79.5952" y="31.9951">User Device</text></g><!--cluster AppServer--><g id="cluster_AppServer"><polygon fill="none" points="16,199.3,26,189.3,238,189.3,238,297.59,228,307.59,16,307.59,16,199.3" style="stroke:#181818;stroke-width:1.0;"></polygon><line style="stroke:#181818;stroke-width:1.0;" x1="228" x2="238" y1="199.3" y2="189.3"></line><line style="stroke:#181818;stroke-width:1.0;" x1="16" x2="228" y1="199.3" y2="199.3"></line><line style="stroke:#181818;stroke-width:1.0;" x1="228" x2="228" y1="199.3" y2="307.59"></line><text fill="#000000" font-family="sans-serif" font-size="14" font-weight="bold" lengthAdjust="spacing" textLength="146.1797" x="49.9102" y="215.2951">Application Server</text></g><!--cluster DatabaseServer--><g id="cluster_DatabaseServer"><polygon fill="none" points="48,382.59,58,372.59,255,372.59,255,480.89,245,490.89,48,490.89,48,382.59" style="stroke:#181818;stroke-width:1.0;"></polygon><line style="stroke:#181818;stroke-width:1.0;" x1="245" x2="255" y1="382.59" y2="372.59"></line><line style="stroke:#181818;stroke-width:1.0;" x1="48" x2="245" y1="382.59" y2="382.59"></line><line style="stroke:#181818;stroke-width:1.0;" x1="245" x2="245" y1="382.59" y2="490.89"></line><text fill="#000000" font-family="sans-serif" font-size="14" font-weight="bold" lengthAdjust="spacing" textLength="131.3867" x="81.8066" y="398.5851">Database Server</text></g><!--entity User App--><g id="elem_User App"><rect fill="#F1F1F1" height="46.2969" rx="2.5" ry="2.5" style="stroke:#181818;stroke-width:0.5;" width="103.7109" x="67.14" y="54"></rect><rect fill="#F1F1F1" height="10" style="stroke:#181818;stroke-width:0.5;" width="15" x="150.8509" y="59"></rect><rect fill="#F1F1F1" height="2" style="stroke:#181818;stroke-width:0.5;" width="4" x="148.8509" y="61"></rect><rect fill="#F1F1F1" height="2" style="stroke:#181818;stroke-width:0.5;" width="4" x="148.8509" y="65"></rect><text fill="#000000" font-family="sans-serif" font-size="14" lengthAdjust="spacing" textLength="63.7109" x="82.14" y="86.9951">User App</text></g><!--entity App Backend--><g id="elem_App Backend"><rect fill="#F1F1F1" height="46.2969" rx="2.5" ry="2.5" style="stroke:#181818;stroke-width:0.5;" width="132.1621" x="48.92" y="237.3"></rect><rect fill="#F1F1F1" height="10" style="stroke:#181818;stroke-width:0.5;" width="15" x="161.0821" y="242.3"></rect><rect fill="#F1F1F1" height="2" style="stroke:#181818;stroke-width:0.5;" width="4" x="159.0821" y="244.3"></rect><rect fill="#F1F1F1" height="2" style="stroke:#181818;stroke-width:0.5;" width="4" x="159.0821" y="248.3"></rect><text fill="#000000" font-family="sans-serif" font-size="14" lengthAdjust="spacing" textLength="92.1621" x="63.92" y="270.2951">App Backend</text></g><!--entity Database--><g id="elem_Database"><rect fill="#F1F1F1" height="46.2969" rx="2.5" ry="2.5" style="stroke:#181818;stroke-width:0.5;" width="106.8008" x="76.6" y="420.59"></rect><rect fill="#F1F1F1" height="10" style="stroke:#181818;stroke-width:0.5;" width="15" x="163.4008" y="425.59"></rect><rect fill="#F1F1F1" height="2" style="stroke:#181818;stroke-width:0.5;" width="4" x="161.4008" y="427.59"></rect><rect fill="#F1F1F1" height="2" style="stroke:#181818;stroke-width:0.5;" width="4" x="161.4008" y="431.59"></rect><text fill="#000000" font-family="sans-serif" font-size="14" lengthAdjust="spacing" textLength="66.8008" x="91.6" y="453.5851">Database</text></g><!--link UserDevice to AppServer--><g id="link_UserDevice_AppServer"><path d="M199.193,124.5558 C199.1474,124.649 199.1015,124.7421 199.0553,124.835 C196.1025,130.7831 192.1875,136.21 187,140.3 C171.4,152.59 111.4,133.64 98,148.3 C92.9,153.87 92.88,159.74 98,165.3 C112.97,181.52 179.83,159.43 197,173.3 C200.5863,176.195 203.6913,179.5667 206.3783,183.2668 C207.7218,185.1169 205.98,181.8419 207.1224,183.8376 " fill="none" id="UserDevice-to-AppServer" style="stroke:#181818;stroke-width:1.0;"></path><polygon fill="#181818" points="210.1033,189.0448,209.1035,179.2468,207.6192,184.7055,202.1606,183.2212,210.1033,189.0448" style="stroke:#181818;stroke-width:1.0;"></polygon><text fill="#000000" font-family="sans-serif" font-size="13" lengthAdjust="spacing" textLength="91.019" x="99" y="161.3669">HTTP Request</text></g><!--link AppServer to UserDevice--><g id="link_AppServer_UserDevice"><path d="M217.1873,189.2023 C217.1613,188.888 217.1353,188.5734 217.1092,188.2584 C217.005,186.9984 216.9003,185.7332 216.7953,184.4637 C216.3752,179.3859 215.9495,174.2405 215.5238,169.0938 C214.6722,158.8003 213.8202,148.5018 213.0119,138.7292 C212.6077,133.8428 212.7089,135.0676 212.332,130.5106 " fill="none" id="AppServer-to-UserDevice" style="stroke:#181818;stroke-width:1.0;"></path><polygon fill="#181818" points="211.8375,124.531,208.5929,133.8301,212.2496,129.514,216.5657,133.1706,211.8375,124.531" style="stroke:#181818;stroke-width:1.0;"></polygon><text fill="#000000" font-family="sans-serif" font-size="13" lengthAdjust="spacing" textLength="100.6484" x="216.05" y="161.3669">HTTP Response</text></g><!--link AppServer to DatabaseServer--><g id="link_AppServer_DatabaseServer"><path d="M223,307.8277 C223,312.385 223,317.1402 223,322.0267 C223,331.7998 223,342.0988 223,352.3925 C223,357.5394 223,362.685 223,367.7629 C223,369.0324 223,370.2976 223,371.5576 C223,371.8726 223,366.1873 223,366.5016 " fill="none" id="AppServer-to-DatabaseServer" style="stroke:#181818;stroke-width:1.0;"></path><polygon fill="#181818" points="223,372.5016,227,363.5016,223,367.5016,219,363.5016,223,372.5016" style="stroke:#181818;stroke-width:1.0;"></polygon><text fill="#000000" font-family="sans-serif" font-size="13" lengthAdjust="spacing" textLength="69.3672" x="224" y="344.6569">SQL Query</text></g><!--SRC=[NOun3u8m48Nt_eeNTlu0Wuc6mS5112R3KCiDHDFMjf0Out-tb5GgjxrtxtjtKlM4hBLaKD8q2Ch0BMQzIBmP_5n3Ogzr1_PXJ0RAoySWk1kKH4rc8XDWRoygijx0WOixoRvRwP8xVkEMKZHw_tnq0voybkUxv5Y1OzESSQ7dIDQnTJ77DiK5wkg4QYJpsWIJ-b-XrKfQ-W80]--></g></svg>