<svg xmlns="http://www.w3.org/2000/svg" xmlns:xlink="http://www.w3.org/1999/xlink" contentstyletype="text/css" height="507px" preserveAspectRatio="none" style="width:1062px;height:507px;background:#FFFFFF;" version="1.1" viewBox="0 0 1062 507" width="1062px" zoomAndPan="magnify"><defs></defs><g><!--class User--><g id="elem_User"><rect codeline="1" fill="#F1F1F1" height="162.0781" id="User" rx="2.5" ry="2.5" style="stroke:#181818;stroke-width:0.5;" width="163.4912" x="389.89" y="7"></rect><ellipse cx="451.4305" cy="23" fill="#ADD1B2" rx="11" ry="11" style="stroke:#181818;stroke-width:1.0;"></ellipse><path d="M454.3993,28.6406 Q453.8212,28.9375 453.1805,29.0781 Q452.5399,29.2344 451.8368,29.2344 Q449.3368,29.2344 448.0087,27.5938 Q446.6962,25.9375 446.6962,22.8125 Q446.6962,19.6875 448.0087,18.0313 Q449.3368,16.375 451.8368,16.375 Q452.5399,16.375 453.1805,16.5313 Q453.8368,16.6875 454.3993,16.9844 L454.3993,19.7031 Q453.7743,19.125 453.1805,18.8594 Q452.5868,18.5781 451.9618,18.5781 Q450.618,18.5781 449.9305,19.6563 Q449.243,20.7188 449.243,22.8125 Q449.243,24.9063 449.9305,25.9844 Q450.618,27.0469 451.9618,27.0469 Q452.5868,27.0469 453.1805,26.7813 Q453.7743,26.5 454.3993,25.9219 L454.3993,28.6406 Z " fill="#000000"></path><text fill="#000000" font-family="sans-serif" font-size="14" lengthAdjust="spacing" textLength="31.9102" x="471.9305" y="27.8467">User</text><line style="stroke:#181818;stroke-width:0.5;" x1="390.89" x2="552.3812" y1="39" y2="39"></line><line style="stroke:#181818;stroke-width:0.5;" x1="390.89" x2="552.3812" y1="47" y2="47"></line><ellipse cx="400.89" cy="60.6484" fill="#84BE84" rx="3" ry="3" style="stroke:#038048;stroke-width:1.0;"></ellipse><text fill="#000000" font-family="sans-serif" font-size="14" lengthAdjust="spacing" textLength="73.2129" x="409.89" y="63.9951">openApp()</text><ellipse cx="400.89" cy="76.9453" fill="#84BE84" rx="3" ry="3" style="stroke:#038048;stroke-width:1.0;"></ellipse><text fill="#000000" font-family="sans-serif" font-size="14" lengthAdjust="spacing" textLength="45.2676" x="409.89" y="80.292">logIn()</text><ellipse cx="400.89" cy="93.2422" fill="#84BE84" rx="3" ry="3" style="stroke:#038048;stroke-width:1.0;"></ellipse><text fill="#000000" font-family="sans-serif" font-size="14" lengthAdjust="spacing" textLength="65.2217" x="409.89" y="96.5889">register()</text><ellipse cx="400.89" cy="109.5391" fill="#84BE84" rx="3" ry="3" style="stroke:#038048;stroke-width:1.0;"></ellipse><text fill="#000000" font-family="sans-serif" font-size="14" lengthAdjust="spacing" textLength="137.4912" x="409.89" y="112.8857">selectDonateFood()</text><ellipse cx="400.89" cy="125.8359" fill="#84BE84" rx="3" ry="3" style="stroke:#038048;stroke-width:1.0;"></ellipse><text fill="#000000" font-family="sans-serif" font-size="14" lengthAdjust="spacing" textLength="130.874" x="409.89" y="129.1826">enterFoodDetails()</text><ellipse cx="400.89" cy="142.1328" fill="#84BE84" rx="3" ry="3" style="stroke:#038048;stroke-width:1.0;"></ellipse><text fill="#000000" font-family="sans-serif" font-size="14" lengthAdjust="spacing" textLength="122.6094" x="409.89" y="145.4795">submitDonation()</text><ellipse cx="400.89" cy="158.4297" fill="#84BE84" rx="3" ry="3" style="stroke:#038048;stroke-width:1.0;"></ellipse><text fill="#000000" font-family="sans-serif" font-size="14" lengthAdjust="spacing" textLength="57.6475" x="409.89" y="161.7764">logOut()</text></g><!--class App--><g id="elem_App"><rect codeline="11" fill="#F1F1F1" height="96.8906" id="App" rx="2.5" ry="2.5" style="stroke:#181818;stroke-width:0.5;" width="162.9648" x="355.16" y="246.08"></rect><ellipse cx="418.7171" cy="262.08" fill="#ADD1B2" rx="11" ry="11" style="stroke:#181818;stroke-width:1.0;"></ellipse><path d="M421.6859,267.7206 Q421.1078,268.0175 420.4671,268.1581 Q419.8265,268.3144 419.1234,268.3144 Q416.6234,268.3144 415.2953,266.6738 Q413.9828,265.0175 413.9828,261.8925 Q413.9828,258.7675 415.2953,257.1113 Q416.6234,255.455 419.1234,255.455 Q419.8265,255.455 420.4671,255.6113 Q421.1234,255.7675 421.6859,256.0644 L421.6859,258.7831 Q421.0609,258.205 420.4671,257.9394 Q419.8734,257.6581 419.2484,257.6581 Q417.9046,257.6581 417.2171,258.7363 Q416.5296,259.7988 416.5296,261.8925 Q416.5296,263.9863 417.2171,265.0644 Q417.9046,266.1269 419.2484,266.1269 Q419.8734,266.1269 420.4671,265.8613 Q421.0609,265.58 421.6859,265.0019 L421.6859,267.7206 Z " fill="#000000"></path><text fill="#000000" font-family="sans-serif" font-size="14" lengthAdjust="spacing" textLength="27.3506" x="439.2171" y="266.9267">App</text><line style="stroke:#181818;stroke-width:0.5;" x1="356.16" x2="517.1248" y1="278.08" y2="278.08"></line><line style="stroke:#181818;stroke-width:0.5;" x1="356.16" x2="517.1248" y1="286.08" y2="286.08"></line><ellipse cx="366.16" cy="299.7284" fill="#84BE84" rx="3" ry="3" style="stroke:#038048;stroke-width:1.0;"></ellipse><text fill="#000000" font-family="sans-serif" font-size="14" lengthAdjust="spacing" textLength="136.9648" x="375.16" y="303.0751">checkRegistration()</text><ellipse cx="366.16" cy="316.0253" fill="#84BE84" rx="3" ry="3" style="stroke:#038048;stroke-width:1.0;"></ellipse><text fill="#000000" font-family="sans-serif" font-size="14" lengthAdjust="spacing" textLength="128.6455" x="375.16" y="319.372">processDonation()</text><ellipse cx="366.16" cy="332.3222" fill="#84BE84" rx="3" ry="3" style="stroke:#038048;stroke-width:1.0;"></ellipse><text fill="#000000" font-family="sans-serif" font-size="14" lengthAdjust="spacing" textLength="119.5605" x="375.16" y="335.6689">schedulePickup()</text></g><!--class System--><g id="elem_System"><rect codeline="17" fill="#F1F1F1" height="80.5938" id="System" rx="2.5" ry="2.5" style="stroke:#181818;stroke-width:0.5;" width="158.6787" x="633.3" y="419.97"></rect><ellipse cx="682.2863" cy="435.97" fill="#ADD1B2" rx="11" ry="11" style="stroke:#181818;stroke-width:1.0;"></ellipse><path d="M685.2551,441.6106 Q684.677,441.9075 684.0363,442.0481 Q683.3957,442.2044 682.6926,442.2044 Q680.1926,442.2044 678.8645,440.5637 Q677.552,438.9075 677.552,435.7825 Q677.552,432.6575 678.8645,431.0012 Q680.1926,429.345 682.6926,429.345 Q683.3957,429.345 684.0363,429.5012 Q684.6926,429.6575 685.2551,429.9544 L685.2551,432.6731 Q684.6301,432.095 684.0363,431.8294 Q683.4426,431.5481 682.8176,431.5481 Q681.4738,431.5481 680.7863,432.6262 Q680.0988,433.6887 680.0988,435.7825 Q680.0988,437.8762 680.7863,438.9544 Q681.4738,440.0169 682.8176,440.0169 Q683.4426,440.0169 684.0363,439.7512 Q684.6301,439.47 685.2551,438.8919 L685.2551,441.6106 Z " fill="#000000"></path><text fill="#000000" font-family="sans-serif" font-size="14" lengthAdjust="spacing" textLength="52.2061" x="702.7863" y="440.8167">System</text><line style="stroke:#181818;stroke-width:0.5;" x1="634.3" x2="790.9787" y1="451.97" y2="451.97"></line><line style="stroke:#181818;stroke-width:0.5;" x1="634.3" x2="790.9787" y1="459.97" y2="459.97"></line><ellipse cx="644.3" cy="473.6184" fill="#84BE84" rx="3" ry="3" style="stroke:#038048;stroke-width:1.0;"></ellipse><text fill="#000000" font-family="sans-serif" font-size="14" lengthAdjust="spacing" textLength="132.6787" x="653.3" y="476.9651">notifyAcceptance()</text><ellipse cx="644.3" cy="489.9153" fill="#84BE84" rx="3" ry="3" style="stroke:#038048;stroke-width:1.0;"></ellipse><text fill="#000000" font-family="sans-serif" font-size="14" lengthAdjust="spacing" textLength="116.3135" x="653.3" y="493.262">notifyRejection()</text></g><!--link User to App--><g id="link_User_App"><path codeline="22" d="M389.63,98.37 C278.03,112.94 87.38,145.18 45.64,199.08 C6,250.25 222.8119,276.3183 348.7519,287.0983 " fill="none" id="User-to-App" style="stroke:#181818;stroke-width:1.0;"></path><polygon fill="#181818" points="354.73,287.61,346.1039,282.857,349.7482,287.1836,345.4217,290.8279,354.73,287.61" style="stroke:#181818;stroke-width:1.0;"></polygon><text fill="#000000" font-family="sans-serif" font-size="13" lengthAdjust="spacing" textLength="57.8398" x="46.64" y="212.1469">openApp</text><text fill="#000000" font-family="sans-serif" font-size="13" lengthAdjust="spacing" textLength="8.271" x="373.7138" y="95.704">1</text><text fill="#000000" font-family="sans-serif" font-size="13" lengthAdjust="spacing" textLength="8.271" x="338.8224" y="283.3541">1</text></g><!--link User to App--><g id="link_User_App"><path codeline="23" d="M389.58,91.21 C312.19,98.17 200.04,121.98 144.64,199.08 C89.61,275.66 244.2617,291.3475 348.6617,293.8275 " fill="none" id="User-to-App-1" style="stroke:#181818;stroke-width:1.0;"></path><polygon fill="#181818" points="354.66,293.97,345.7575,289.7574,349.6614,293.8513,345.5675,297.7551,354.66,293.97" style="stroke:#181818;stroke-width:1.0;"></polygon><text fill="#000000" font-family="sans-serif" font-size="13" lengthAdjust="spacing" textLength="31.8906" x="145.64" y="212.1469">logIn</text><text fill="#000000" font-family="sans-serif" font-size="13" lengthAdjust="spacing" textLength="8.271" x="373.6592" y="104.2667">1</text><text fill="#000000" font-family="sans-serif" font-size="13" lengthAdjust="spacing" textLength="8.271" x="339.0143" y="306.6613">1</text></g><!--link User to App--><g id="link_User_App"><path codeline="24" d="M389.52,100.71 C330.72,113.83 255.49,141.43 217.64,199.08 C180.82,255.15 272.3436,277.3479 348.8936,286.6279 " fill="none" id="User-to-App-2" style="stroke:#181818;stroke-width:1.0;"></path><polygon fill="#181818" points="354.85,287.35,346.3968,282.296,349.8863,286.7483,345.434,290.2378,354.85,287.35" style="stroke:#181818;stroke-width:1.0;"></polygon><text fill="#000000" font-family="sans-serif" font-size="13" lengthAdjust="spacing" textLength="50.4194" x="218.64" y="212.1469">register</text><text fill="#000000" font-family="sans-serif" font-size="13" lengthAdjust="spacing" textLength="8.271" x="373.5937" y="114.6425">1</text><text fill="#000000" font-family="sans-serif" font-size="13" lengthAdjust="spacing" textLength="8.271" x="338.9535" y="283.0701">1</text></g><!--link User to App--><g id="link_User_App"><path codeline="25" d="M389.47,124.06 C358.63,141.74 326.9,166.48 309.64,199.08 C294.08,228.46 316.1765,248.5938 349.5265,264.3738 " fill="none" id="User-to-App-3" style="stroke:#181818;stroke-width:1.0;"></path><polygon fill="#181818" points="354.95,266.94,348.5255,259.475,350.4304,264.8015,345.1039,266.7064,354.95,266.94" style="stroke:#181818;stroke-width:1.0;"></polygon><text fill="#000000" font-family="sans-serif" font-size="13" lengthAdjust="spacing" textLength="117.5269" x="310.64" y="212.1469">selectDonateFood</text><text fill="#000000" font-family="sans-serif" font-size="13" lengthAdjust="spacing" textLength="8.271" x="373.5391" y="140.1451">1</text><text fill="#000000" font-family="sans-serif" font-size="13" lengthAdjust="spacing" textLength="8.271" x="338.7954" y="260.6692">1</text></g><!--link User to App--><g id="link_User_App"><path codeline="26" d="M457.86,169.56 C453.44,195.38 449.7039,217.2163 445.8139,239.9063 " fill="none" id="User-to-App-4" style="stroke:#181818;stroke-width:1.0;"></path><polygon fill="#181818" points="444.8,245.82,450.2633,237.6253,445.6449,240.8919,442.3783,236.2735,444.8,245.82" style="stroke:#181818;stroke-width:1.0;"></polygon><text fill="#000000" font-family="sans-serif" font-size="13" lengthAdjust="spacing" textLength="111.3823" x="453.04" y="212.1469">enterFoodDetails</text><text fill="#000000" font-family="sans-serif" font-size="13" lengthAdjust="spacing" textLength="8.271" x="448.3441" y="189.2828">1</text><text fill="#000000" font-family="sans-serif" font-size="13" lengthAdjust="spacing" textLength="8.271" x="437.4037" y="234.9924">1</text></g><!--link User to App--><g id="link_User_App"><path codeline="27" d="M553.61,145.3 C574.24,166.51 586.94,191.47 572.64,216.08 C560.35,237.22 545.1564,250.1952 523.7964,261.8552 " fill="none" id="User-to-App-5" style="stroke:#181818;stroke-width:1.0;"></path><polygon fill="#181818" points="518.53,264.73,528.3462,263.9287,522.9187,262.3343,524.5131,256.9068,518.53,264.73" style="stroke:#181818;stroke-width:1.0;"></polygon><text fill="#000000" font-family="sans-serif" font-size="13" lengthAdjust="spacing" textLength="103.708" x="579.17" y="212.1469">submitDonation</text><text fill="#000000" font-family="sans-serif" font-size="13" lengthAdjust="spacing" textLength="8.271" x="561.2792" y="146.8046">1</text><text fill="#000000" font-family="sans-serif" font-size="13" lengthAdjust="spacing" textLength="8.271" x="526.1914" y="258.4812">1</text></g><!--link User to App--><g id="link_User_App"><path codeline="28" d="M553.87,104.12 C632.94,122.39 734.59,158.15 691.64,216.08 C670.7,244.32 590.6145,265.1584 524.2145,278.3784 " fill="none" id="User-to-App-6" style="stroke:#181818;stroke-width:1.0;"></path><polygon fill="#181818" points="518.33,279.55,527.9378,281.7156,523.2338,278.5737,526.3757,273.8696,518.33,279.55" style="stroke:#181818;stroke-width:1.0;"></polygon><text fill="#000000" font-family="sans-serif" font-size="13" lengthAdjust="spacing" textLength="43.3862" x="701.05" y="212.1469">logOut</text><text fill="#000000" font-family="sans-serif" font-size="13" lengthAdjust="spacing" textLength="8.271" x="561.2924" y="101.93">1</text><text fill="#000000" font-family="sans-serif" font-size="13" lengthAdjust="spacing" textLength="8.271" x="526.2418" y="290.9339">1</text></g><!--link App to System--><g id="link_App_System"><path codeline="30" d="M399.64,343.18 C391.79,359.17 388.72,376.37 399.64,389.97 C428.38,425.77 544.1319,443.5923 627.0319,452.1723 " fill="none" id="App-to-System" style="stroke:#181818;stroke-width:1.0;"></path><polygon fill="#181818" points="633,452.79,624.4596,447.8847,628.0266,452.2753,623.636,455.8422,633,452.79" style="stroke:#181818;stroke-width:1.0;"></polygon><text fill="#000000" font-family="sans-serif" font-size="13" lengthAdjust="spacing" textLength="117.0381" x="400.64" y="386.0369">checkRegistration</text><text fill="#000000" font-family="sans-serif" font-size="13" lengthAdjust="spacing" textLength="8.271" x="385.8931" y="363.153">1</text><text fill="#000000" font-family="sans-serif" font-size="13" lengthAdjust="spacing" textLength="8.271" x="617.041" y="448.4357">1</text></g><!--link App to System--><g id="link_App_System"><path codeline="31" d="M492.67,343.36 C512.75,359.27 536.02,376.38 558.64,389.97 C581.89,403.93 602.9528,414.423 627.3928,425.233 " fill="none" id="App-to-System-1" style="stroke:#181818;stroke-width:1.0;"></path><polygon fill="#181818" points="632.88,427.66,626.2672,420.3613,628.3073,425.6375,623.0312,427.6776,632.88,427.66" style="stroke:#181818;stroke-width:1.0;"></polygon><text fill="#000000" font-family="sans-serif" font-size="13" lengthAdjust="spacing" textLength="109.313" x="559.64" y="386.0369">processDonation</text><text fill="#000000" font-family="sans-serif" font-size="13" lengthAdjust="spacing" textLength="8.271" x="491.6794" y="363.0058">1</text><text fill="#000000" font-family="sans-serif" font-size="13" lengthAdjust="spacing" textLength="8.271" x="616.9096" y="420.9105">1</text></g><!--link App to System--><g id="link_App_System"><path codeline="32" d="M518.52,305.35 C568.48,315.12 630.78,334.53 673.64,372.97 C687.35,385.26 694.4768,397.6822 700.4568,414.1022 " fill="none" id="App-to-System-2" style="stroke:#181818;stroke-width:1.0;"></path><polygon fill="#181818" points="702.51,419.74,703.1887,409.9146,700.799,415.0419,695.6717,412.6522,702.51,419.74" style="stroke:#181818;stroke-width:1.0;"></polygon><text fill="#000000" font-family="sans-serif" font-size="13" lengthAdjust="spacing" textLength="100.877" x="687.93" y="386.0369">schedulePickup</text><text fill="#000000" font-family="sans-serif" font-size="13" lengthAdjust="spacing" textLength="8.271" x="526.1805" y="319.0549">1</text><text fill="#000000" font-family="sans-serif" font-size="13" lengthAdjust="spacing" textLength="8.271" x="692.1923" y="408.8634">1</text></g><!--link System to User--><g id="link_System_User"><path codeline="34" d="M774.39,419.66 C783.4,411.02 791.4,401.08 796.64,389.97 C833.76,311.21 810.22,264.38 752.64,199.08 C701.79,141.41 622.7742,114.9222 559.5742,101.7722 " fill="none" id="System-to-User" style="stroke:#181818;stroke-width:1.0;"></path><polygon fill="#181818" points="553.7,100.55,561.6965,106.2995,558.5952,101.5685,563.3261,98.4672,553.7,100.55" style="stroke:#181818;stroke-width:1.0;"></polygon><text fill="#000000" font-family="sans-serif" font-size="13" lengthAdjust="spacing" textLength="113.0581" x="815.53" y="299.0869">notifyAcceptance</text><text fill="#000000" font-family="sans-serif" font-size="13" lengthAdjust="spacing" textLength="8.271" x="775.9774" y="408.7702">1</text><text fill="#000000" font-family="sans-serif" font-size="13" lengthAdjust="spacing" textLength="8.271" x="561.3772" y="114.405">1</text></g><!--link System to User--><g id="link_System_User"><path codeline="35" d="M792.43,440.77 C843.62,424.33 906.2,394.61 937.64,342.97 C960.03,306.18 962.76,281.05 937.64,246.08 C849.86,123.86 668.0514,95.8214 559.5714,90.0014 " fill="none" id="System-to-User-1" style="stroke:#181818;stroke-width:1.0;"></path><polygon fill="#181818" points="553.58,89.68,562.3528,94.1564,558.5728,89.9479,562.7814,86.1679,553.58,89.68" style="stroke:#181818;stroke-width:1.0;"></polygon><text fill="#000000" font-family="sans-serif" font-size="13" lengthAdjust="spacing" textLength="97.8618" x="956.47" y="299.0869">notifyRejection</text><text fill="#000000" font-family="sans-serif" font-size="13" lengthAdjust="spacing" textLength="8.271" x="799.9047" y="435.4384">1</text><text fill="#000000" font-family="sans-serif" font-size="13" lengthAdjust="spacing" textLength="8.271" x="561.5155" y="86.2129">1</text></g><!--SRC=[XL71Yi8m4BtdAuAd5V7WjGT1a8KzhIZx0NKStMXCGYOzoBB_xZHjf8r4Uoapy-RDotkWQoBvG-Zbdv3ypQn3itBkOzgLsfw-J2eydXG5zAacr0XXRKqTyDFQG-gZOL3RM6EebQO7ljbVLOTNrWnEV3U1gtyX8EhX-qaE_29Sjl6k7sqvRm69SZBYXKEZSQFWqhWXwUx6qg-9rzYWZhSL0BfG6y2qt_MtUEQ7TRHC4FsPB2PoFb_6VokmahrLfN6qhZHCLfRckRKbN6vraMza_Gl978KGRJMSzjvLyYcECZGBg0mSHoP4FnXYeznAvg6zXJvol0C0]--></g></svg>