<svg xmlns="http://www.w3.org/2000/svg" xmlns:xlink="http://www.w3.org/1999/xlink" contentstyletype="text/css" height="184px" preserveAspectRatio="none" style="width:1101px;height:184px;background:#FFFFFF;" version="1.1" viewBox="0 0 1101 184" width="1101px" zoomAndPan="magnify"><defs></defs><g><!--entity User--><g id="elem_User"><ellipse cx="328.5451" cy="14" fill="#F1F1F1" rx="8" ry="8" style="stroke:#181818;stroke-width:0.5;"></ellipse><path d="M328.5451,22 L328.5451,49 M315.5451,30 L341.5451,30 M328.5451,49 L315.5451,64 M328.5451,49 L341.5451,64 " fill="none" style="stroke:#181818;stroke-width:0.5;"></path><text fill="#000000" font-family="sans-serif" font-size="14" lengthAdjust="spacing" textLength="31.9102" x="312.59" y="78.4951">User</text></g><!--entity Admin--><g id="elem_Admin"><ellipse cx="921.5521" cy="14" fill="#F1F1F1" rx="8" ry="8" style="stroke:#181818;stroke-width:0.5;"></ellipse><path d="M921.5521,22 L921.5521,49 M908.5521,30 L934.5521,30 M921.5521,49 L908.5521,64 M921.5521,49 L934.5521,64 " fill="none" style="stroke:#181818;stroke-width:0.5;"></path><text fill="#000000" font-family="sans-serif" font-size="14" lengthAdjust="spacing" textLength="44.8643" x="899.12" y="78.4951">Admin</text></g><g id="elem_UC_Register"><ellipse cx="59.5484" cy="159.9932" fill="#F1F1F1" rx="53.5484" ry="14.7232" style="stroke:#181818;stroke-width:0.5;"></ellipse><text fill="#000000" font-family="sans-serif" font-size="14" lengthAdjust="spacing" textLength="58.2695" x="27.4136" y="163.7407">Register</text></g><g id="elem_UC_Login"><ellipse cx="186.5541" cy="159.9857" fill="#F1F1F1" rx="38.4641" ry="14.5557" style="stroke:#181818;stroke-width:0.5;"></ellipse><text fill="#000000" font-family="sans-serif" font-size="14" lengthAdjust="spacing" textLength="38.0146" x="165.68" y="163.4406">Login</text></g><g id="elem_UC_Donate"><ellipse cx="328.5536" cy="159.9907" fill="#F1F1F1" rx="68.7536" ry="16.1507" style="stroke:#181818;stroke-width:0.5;"></ellipse><text fill="#000000" font-family="sans-serif" font-size="14" lengthAdjust="spacing" textLength="89.4209" x="280.8432" y="163.7383">Donate Food</text></g><g id="elem_UC_ViewDonations"><ellipse cx="508.5543" cy="159.9949" fill="#F1F1F1" rx="76.1243" ry="17.6249" style="stroke:#181818;stroke-width:0.5;"></ellipse><text fill="#000000" font-family="sans-serif" font-size="14" lengthAdjust="spacing" textLength="108.8896" x="451.1095" y="163.7424">View Donations</text></g><g id="elem_UC_AcceptDonation"><ellipse cx="825.546" cy="159.9852" fill="#F1F1F1" rx="78.976" ry="18.1952" style="stroke:#181818;stroke-width:0.5;"></ellipse><text fill="#000000" font-family="sans-serif" font-size="14" lengthAdjust="spacing" textLength="116.0264" x="765.4718" y="163.4795">Accept Donation</text></g><g id="elem_UC_SchedulePickup"><ellipse cx="1017.5494" cy="159.9859" fill="#F1F1F1" rx="78.4294" ry="18.0859" style="stroke:#181818;stroke-width:0.5;"></ellipse><text fill="#000000" font-family="sans-serif" font-size="14" lengthAdjust="spacing" textLength="114.6797" x="957.9313" y="163.5409">Schedule Pickup</text></g><g id="elem_UC_Logout"><ellipse cx="665.5477" cy="159.9894" fill="#F1F1F1" rx="46.0177" ry="14.6494" style="stroke:#181818;stroke-width:0.5;"></ellipse><text fill="#000000" font-family="sans-serif" font-size="14" lengthAdjust="spacing" textLength="48.1797" x="638.4579" y="163.7369">Logout</text></g><!--link User to UC_Register--><g id="link_User_UC_Register"><path d="M312.13,51.63 C267.52,70.59 149.2618,120.8627 93.2518,144.6727 " fill="none" id="User-to-UC_Register" style="stroke:#181818;stroke-width:1.0;"></path><polygon fill="#181818" points="87.73,147.02,97.5776,147.1802,92.3315,145.0639,94.4478,139.8178,87.73,147.02" style="stroke:#181818;stroke-width:1.0;"></polygon></g><!--link User to UC_Login--><g id="link_User_UC_Login"><path d="M312.26,57.77 C284.72,79.94 234.0039,120.7878 206.8839,142.6178 " fill="none" id="User-to-UC_Login" style="stroke:#181818;stroke-width:1.0;"></path><polygon fill="#181818" points="202.21,146.38,211.729,143.8526,206.1049,143.2448,206.7127,137.6207,202.21,146.38" style="stroke:#181818;stroke-width:1.0;"></polygon></g><!--link User to UC_Donate--><g id="link_User_UC_Donate"><path d="M328.55,82.09 C328.55,102.93 328.55,121.76 328.55,137.45 " fill="none" id="User-to-UC_Donate" style="stroke:#181818;stroke-width:1.0;"></path><polygon fill="#181818" points="328.55,143.45,332.55,134.45,328.55,138.45,324.55,134.45,328.55,143.45" style="stroke:#181818;stroke-width:1.0;"></polygon></g><!--link User to UC_ViewDonations--><g id="link_User_UC_ViewDonations"><path d="M344.84,55 C376.34,75.01 440.7254,115.9129 478.2554,139.7529 " fill="none" id="User-to-UC_ViewDonations" style="stroke:#181818;stroke-width:1.0;"></path><polygon fill="#181818" points="483.32,142.97,477.8679,134.7679,479.0995,140.289,473.5784,141.5207,483.32,142.97" style="stroke:#181818;stroke-width:1.0;"></polygon></g><!--link User to UC_Logout--><g id="link_User_UC_Logout"><path d="M344.8,50.17 C397.72,68.12 559.9781,123.1722 629.3881,146.7222 " fill="none" id="User-to-UC_Logout" style="stroke:#181818;stroke-width:1.0;"></path><polygon fill="#181818" points="635.07,148.65,627.8324,141.9704,630.3351,147.0435,625.262,149.5462,635.07,148.65" style="stroke:#181818;stroke-width:1.0;"></polygon></g><!--link Admin to UC_AcceptDonation--><g id="link_Admin_UC_AcceptDonation"><path d="M898.8,71.75 C880.61,93.41 859.5176,118.5245 843.9376,137.0845 " fill="none" id="Admin-to-UC_AcceptDonation" style="stroke:#181818;stroke-width:1.0;"></path><polygon fill="#181818" points="840.08,141.68,848.9301,137.3585,843.2947,137.8504,842.8028,132.215,840.08,141.68" style="stroke:#181818;stroke-width:1.0;"></polygon></g><!--link Admin to UC_SchedulePickup--><g id="link_Admin_UC_SchedulePickup"><path d="M944.3,71.75 C962.6,93.54 983.8816,118.8951 999.4416,137.4251 " fill="none" id="Admin-to-UC_SchedulePickup" style="stroke:#181818;stroke-width:1.0;"></path><polygon fill="#181818" points="1003.3,142.02,1000.5756,132.5554,1000.0847,138.1909,994.4492,137.7,1003.3,142.02" style="stroke:#181818;stroke-width:1.0;"></polygon></g><!--SRC=[NP3B3i8W44NtVCMa-_w2IQDnvS9ewjOGc5IYCWsF-FjQS0fqnprp2DoHAf23qQCJCXq7_JPMYEXHIO_GNN0oFg3hG7eOztVEnJZHP2oFKoYp0raP48v4cesCYd8p-8443LdFra9NMEH1APp3ghETCTEYNzK3TNmXd8rwnfbrnfasJIY6giel2R4i1_f-rxIlOUvSat_76hM5DjVJEsdp33UDcbdx_Iy0]--></g></svg>