<svg xmlns="http://www.w3.org/2000/svg" xmlns:xlink="http://www.w3.org/1999/xlink" contentstyletype="text/css" height="696px" preserveAspectRatio="none" style="width:373px;height:696px;background:#FFFFFF;" version="1.1" viewBox="0 0 373 696" width="373px" zoomAndPan="magnify"><defs></defs><g><ellipse cx="190.9165" cy="20" fill="#222222" rx="10" ry="10" style="stroke:#222222;stroke-width:1.0;"></ellipse><rect fill="#F1F1F1" height="33.9688" rx="12.5" ry="12.5" style="stroke:#181818;stroke-width:0.5;" width="137.2754" x="122.2788" y="50"></rect><text fill="#000000" font-family="sans-serif" font-size="12" lengthAdjust="spacing" textLength="117.2754" x="132.2788" y="71.1387">User opens the app</text><polygon fill="#F1F1F1" points="139.8105,103.9688,242.0225,103.9688,254.0225,115.9688,242.0225,127.9688,139.8105,127.9688,127.8105,115.9688,139.8105,103.9688" style="stroke:#181818;stroke-width:0.5;"></polygon><text fill="#000000" font-family="sans-serif" font-size="11" lengthAdjust="spacing" textLength="102.2119" x="139.8105" y="119.7769">Is user registered?</text><text fill="#000000" font-family="sans-serif" font-size="11" lengthAdjust="spacing" textLength="19.0083" x="108.8022" y="113.3745">yes</text><text fill="#000000" font-family="sans-serif" font-size="11" lengthAdjust="spacing" textLength="13.7017" x="254.0225" y="113.3745">no</text><rect fill="#F1F1F1" height="33.9688" rx="12.5" ry="12.5" style="stroke:#181818;stroke-width:0.5;" width="90.4648" x="72.5781" y="137.9688"></rect><text fill="#000000" font-family="sans-serif" font-size="12" lengthAdjust="spacing" textLength="70.4648" x="82.5781" y="159.1074">User logs in</text><rect fill="#F1F1F1" height="33.9688" rx="12.5" ry="12.5" style="stroke:#181818;stroke-width:0.5;" width="103.959" x="212.043" y="137.9688"></rect><text fill="#000000" font-family="sans-serif" font-size="12" lengthAdjust="spacing" textLength="83.959" x="222.043" y="159.1074">User registers</text><rect fill="#F1F1F1" height="33.9688" rx="12.5" ry="12.5" style="stroke:#181818;stroke-width:0.5;" width="90.4648" x="218.79" y="191.9375"></rect><text fill="#000000" font-family="sans-serif" font-size="12" lengthAdjust="spacing" textLength="70.4648" x="228.79" y="213.0762">User logs in</text><polygon fill="#F1F1F1" points="190.9165,231.9063,202.9165,243.9063,190.9165,255.9063,178.9165,243.9063,190.9165,231.9063" style="stroke:#181818;stroke-width:0.5;"></polygon><rect fill="#F1F1F1" height="33.9688" rx="12.5" ry="12.5" style="stroke:#181818;stroke-width:0.5;" width="180.1309" x="100.8511" y="275.9063"></rect><text fill="#000000" font-family="sans-serif" font-size="12" lengthAdjust="spacing" textLength="160.1309" x="110.8511" y="297.0449">User selects 'Donate Food'</text><rect fill="#F1F1F1" height="33.9688" rx="12.5" ry="12.5" style="stroke:#181818;stroke-width:0.5;" width="163.5605" x="109.1362" y="329.875"></rect><text fill="#000000" font-family="sans-serif" font-size="12" lengthAdjust="spacing" textLength="143.5605" x="119.1362" y="351.0137">User enters food details</text><rect fill="#F1F1F1" height="33.9688" rx="12.5" ry="12.5" style="stroke:#181818;stroke-width:0.5;" width="155.3398" x="113.2466" y="383.8438"></rect><text fill="#000000" font-family="sans-serif" font-size="12" lengthAdjust="spacing" textLength="135.3398" x="123.2466" y="404.9824">User submits donation</text><polygon fill="#F1F1F1" points="130.4407,437.8125,251.3923,437.8125,263.3923,449.8125,251.3923,461.8125,130.4407,461.8125,118.4407,449.8125,130.4407,437.8125" style="stroke:#181818;stroke-width:0.5;"></polygon><text fill="#000000" font-family="sans-serif" font-size="11" lengthAdjust="spacing" textLength="120.9517" x="130.4407" y="453.6206">Is donation accepted?</text><text fill="#000000" font-family="sans-serif" font-size="11" lengthAdjust="spacing" textLength="19.0083" x="99.4324" y="447.2183">yes</text><text fill="#000000" font-family="sans-serif" font-size="11" lengthAdjust="spacing" textLength="13.7017" x="263.3923" y="447.2183">no</text><rect fill="#F1F1F1" height="33.9688" rx="12.5" ry="12.5" style="stroke:#181818;stroke-width:0.5;" width="174.0605" x="11" y="471.8125"></rect><text fill="#000000" font-family="sans-serif" font-size="12" lengthAdjust="spacing" textLength="154.0605" x="21" y="492.9512">Notify user of acceptance</text><rect fill="#F1F1F1" height="33.9688" rx="12.5" ry="12.5" style="stroke:#181818;stroke-width:0.5;" width="118.6777" x="38.6914" y="525.7813"></rect><text fill="#000000" font-family="sans-serif" font-size="12" lengthAdjust="spacing" textLength="98.6777" x="48.6914" y="546.9199">Schedule pickup</text><rect fill="#F1F1F1" height="33.9688" rx="12.5" ry="12.5" style="stroke:#181818;stroke-width:0.5;" width="157.4844" x="205.0605" y="471.8125"></rect><text fill="#000000" font-family="sans-serif" font-size="12" lengthAdjust="spacing" textLength="137.4844" x="215.0605" y="492.9512">Notify user of rejection</text><polygon fill="#F1F1F1" points="190.9165,565.75,202.9165,577.75,190.9165,589.75,178.9165,577.75,190.9165,565.75" style="stroke:#181818;stroke-width:0.5;"></polygon><rect fill="#F1F1F1" height="33.9688" rx="12.5" ry="12.5" style="stroke:#181818;stroke-width:0.5;" width="99.1777" x="141.3276" y="609.75"></rect><text fill="#000000" font-family="sans-serif" font-size="12" lengthAdjust="spacing" textLength="79.1777" x="151.3276" y="630.8887">User logs out</text><ellipse cx="190.9165" cy="674.7188" fill="none" rx="11" ry="11" style="stroke:#222222;stroke-width:1.0;"></ellipse><ellipse cx="190.9165" cy="674.7188" fill="#222222" rx="6" ry="6" style="stroke:#222222;stroke-width:1.0;"></ellipse><line style="stroke:#181818;stroke-width:1.0;" x1="190.9165" x2="190.9165" y1="30" y2="50"></line><polygon fill="#181818" points="186.9165,40,190.9165,50,194.9165,40,190.9165,44" style="stroke:#181818;stroke-width:1.0;"></polygon><line style="stroke:#181818;stroke-width:1.0;" x1="264.0225" x2="264.0225" y1="171.9375" y2="191.9375"></line><polygon fill="#181818" points="260.0225,181.9375,264.0225,191.9375,268.0225,181.9375,264.0225,185.9375" style="stroke:#181818;stroke-width:1.0;"></polygon><line style="stroke:#181818;stroke-width:1.0;" x1="127.8105" x2="117.8105" y1="115.9688" y2="115.9688"></line><line style="stroke:#181818;stroke-width:1.0;" x1="117.8105" x2="117.8105" y1="115.9688" y2="137.9688"></line><polygon fill="#181818" points="113.8105,127.9688,117.8105,137.9688,121.8105,127.9688,117.8105,131.9688" style="stroke:#181818;stroke-width:1.0;"></polygon><line style="stroke:#181818;stroke-width:1.0;" x1="254.0225" x2="264.0225" y1="115.9688" y2="115.9688"></line><line style="stroke:#181818;stroke-width:1.0;" x1="264.0225" x2="264.0225" y1="115.9688" y2="137.9688"></line><polygon fill="#181818" points="260.0225,127.9688,264.0225,137.9688,268.0225,127.9688,264.0225,131.9688" style="stroke:#181818;stroke-width:1.0;"></polygon><line style="stroke:#181818;stroke-width:1.0;" x1="117.8105" x2="117.8105" y1="171.9375" y2="243.9063"></line><line style="stroke:#181818;stroke-width:1.0;" x1="117.8105" x2="178.9165" y1="243.9063" y2="243.9063"></line><polygon fill="#181818" points="168.9165,239.9063,178.9165,243.9063,168.9165,247.9063,172.9165,243.9063" style="stroke:#181818;stroke-width:1.0;"></polygon><line style="stroke:#181818;stroke-width:1.0;" x1="264.0225" x2="264.0225" y1="225.9063" y2="243.9063"></line><line style="stroke:#181818;stroke-width:1.0;" x1="264.0225" x2="202.9165" y1="243.9063" y2="243.9063"></line><polygon fill="#181818" points="212.9165,239.9063,202.9165,243.9063,212.9165,247.9063,208.9165,243.9063" style="stroke:#181818;stroke-width:1.0;"></polygon><line style="stroke:#181818;stroke-width:1.0;" x1="190.9165" x2="190.9165" y1="83.9688" y2="103.9688"></line><polygon fill="#181818" points="186.9165,93.9688,190.9165,103.9688,194.9165,93.9688,190.9165,97.9688" style="stroke:#181818;stroke-width:1.0;"></polygon><line style="stroke:#181818;stroke-width:1.0;" x1="190.9165" x2="190.9165" y1="255.9063" y2="275.9063"></line><polygon fill="#181818" points="186.9165,265.9063,190.9165,275.9063,194.9165,265.9063,190.9165,269.9063" style="stroke:#181818;stroke-width:1.0;"></polygon><line style="stroke:#181818;stroke-width:1.0;" x1="190.9165" x2="190.9165" y1="309.875" y2="329.875"></line><polygon fill="#181818" points="186.9165,319.875,190.9165,329.875,194.9165,319.875,190.9165,323.875" style="stroke:#181818;stroke-width:1.0;"></polygon><line style="stroke:#181818;stroke-width:1.0;" x1="190.9165" x2="190.9165" y1="363.8438" y2="383.8438"></line><polygon fill="#181818" points="186.9165,373.8438,190.9165,383.8438,194.9165,373.8438,190.9165,377.8438" style="stroke:#181818;stroke-width:1.0;"></polygon><line style="stroke:#181818;stroke-width:1.0;" x1="98.0303" x2="98.0303" y1="505.7813" y2="525.7813"></line><polygon fill="#181818" points="94.0303,515.7813,98.0303,525.7813,102.0303,515.7813,98.0303,519.7813" style="stroke:#181818;stroke-width:1.0;"></polygon><line style="stroke:#181818;stroke-width:1.0;" x1="118.4407" x2="98.0303" y1="449.8125" y2="449.8125"></line><line style="stroke:#181818;stroke-width:1.0;" x1="98.0303" x2="98.0303" y1="449.8125" y2="471.8125"></line><polygon fill="#181818" points="94.0303,461.8125,98.0303,471.8125,102.0303,461.8125,98.0303,465.8125" style="stroke:#181818;stroke-width:1.0;"></polygon><line style="stroke:#181818;stroke-width:1.0;" x1="263.3923" x2="283.8027" y1="449.8125" y2="449.8125"></line><line style="stroke:#181818;stroke-width:1.0;" x1="283.8027" x2="283.8027" y1="449.8125" y2="471.8125"></line><polygon fill="#181818" points="279.8027,461.8125,283.8027,471.8125,287.8027,461.8125,283.8027,465.8125" style="stroke:#181818;stroke-width:1.0;"></polygon><line style="stroke:#181818;stroke-width:1.0;" x1="98.0303" x2="98.0303" y1="559.75" y2="577.75"></line><line style="stroke:#181818;stroke-width:1.0;" x1="98.0303" x2="178.9165" y1="577.75" y2="577.75"></line><polygon fill="#181818" points="168.9165,573.75,178.9165,577.75,168.9165,581.75,172.9165,577.75" style="stroke:#181818;stroke-width:1.0;"></polygon><line style="stroke:#181818;stroke-width:1.0;" x1="283.8027" x2="283.8027" y1="505.7813" y2="577.75"></line><line style="stroke:#181818;stroke-width:1.0;" x1="283.8027" x2="202.9165" y1="577.75" y2="577.75"></line><polygon fill="#181818" points="212.9165,573.75,202.9165,577.75,212.9165,581.75,208.9165,577.75" style="stroke:#181818;stroke-width:1.0;"></polygon><line style="stroke:#181818;stroke-width:1.0;" x1="190.9165" x2="190.9165" y1="417.8125" y2="437.8125"></line><polygon fill="#181818" points="186.9165,427.8125,190.9165,437.8125,194.9165,427.8125,190.9165,431.8125" style="stroke:#181818;stroke-width:1.0;"></polygon><line style="stroke:#181818;stroke-width:1.0;" x1="190.9165" x2="190.9165" y1="589.75" y2="609.75"></line><polygon fill="#181818" points="186.9165,599.75,190.9165,609.75,194.9165,599.75,190.9165,603.75" style="stroke:#181818;stroke-width:1.0;"></polygon><line style="stroke:#181818;stroke-width:1.0;" x1="190.9165" x2="190.9165" y1="643.7188" y2="663.7188"></line><polygon fill="#181818" points="186.9165,653.7188,190.9165,663.7188,194.9165,653.7188,190.9165,657.7188" style="stroke:#181818;stroke-width:1.0;"></polygon><!--SRC=[ROz1RW8n34NtEOLt35VeBBf1bTXqK_K08Vc1q3IEOcV1xPk1YKG1B_tzhFz4RLLZthu5bRWW2-a9P4kPJGmqxONQ4bKSeoWg_FjskSWqNI1RGtrkSEAZKCopGHBGbFa-7BZCBudiOnWb10bEXJOxpbP17yn-CwyXylA4Gj-HXzgOP4JI3h-nStx18lUtGs1io3g7eYyLFbbZkDnSEQoNDZkiXR_S2RubK8dkfvKdomU-ujmbhYt-oLsLkMal9yhb3m00]--></g></svg>